# xmcd
#
# Track frame offsets: 
#        150
#        18173
#        41438
#        74603
#        91943
#        103508
#        132623
#        149288
#        168578
#        180218
#        214283
#        236423
#        252188
#        268028
#        291143
#
# Disc length: 4013 seconds
#
# Revision: 0
# Processed by: cddbd v1.5.2PL0 Copyright (c) Steve Scherf et al.
# Submitted via: ExactAudioCopy v1.0b4
#
DISCID=d70fab0f
DTITLE=Gregor Hilden - Westcoast Blues
DYEAR=1998
DGENRE=Blues, Electric Blues
TTITLE0=Down Home Blues
TTITLE1=The Ghetto
TTITLE2=Heart Of The City
TTITLE3=Ocean Breeze Motel
TTITLE4=Ooh Wee Baby
TTITLE5=Sleepwalk
TTITLE6=New York Blues
TTITLE7=Mercy, Mercy, Mercy
TTITLE8=Sunnymoon For Two
TTITLE9=Since I Fell For You
TTITLE10=Proud Pinto
TTITLE11=Westcoast Blues
TTITLE12=Little Funky Thang
TTITLE13=Beale Street Strut
TTITLE14=Apostle
EXTD=
EXTT0=
EXTT1=
EXTT2=
EXTT3=
EXTT4=
EXTT5=
EXTT6=
EXTT7=
EXTT8=
EXTT9=
EXTT10=
EXTT11=
EXTT12=
EXTT13=
EXTT14=
PLAYORDER=
